<svg xmlns="http://www.w3.org/2000/svg" width="612" height="612" viewBox="0 0 612 612"><path fill="#ffffff" d="M260.655 351.173c-3.615-4.016-8.72-6.636-14.554-6.655l-164.914-.23c-10.92-.018-19.756 8.817-19.737 19.738.018 10.92 12.755 23.198 18.225 28.668l41.71 41.712L0 554.626 57.375 612l119.608-121.98 41.71 41.713c9.028 9.027 18.19 18.628 29.11 18.646 10.92.02 19.755-8.817 19.736-19.737l-.23-164.915c-.02-5.833-2.64-10.94-6.655-14.555zm232.464-175.7L612 57.374 554.625 0l-118.06 118.556-42.418-42.687c-9.18-9.24-18.494-19.07-29.587-19.088-11.11-.02-20.08 9.027-20.08 20.196l.228 168.797c0 5.967 2.678 11.188 6.77 14.898 3.69 4.112 8.875 6.79 14.804 6.81l167.726.228c11.093.02 20.082-9.026 20.082-20.195-.02-11.17-12.967-23.753-18.532-29.338l-42.44-42.705z"/></svg>