<svg xmlns="http://www.w3.org/2000/svg" width="612" height="612" viewBox="0 0 612 612"><path fill="#ffffff" d="M210.498 344.46L90.804 466.525l-41.742-41.742c-9.034-9.033-18.2-18.64-29.13-18.66-10.927-.02-19.77 8.823-19.75 19.75l.23 165.035c0 5.836 2.64 10.927 6.66 14.563 3.636 4.02 8.746 6.64 14.564 6.66l165.053.23c10.927.02 19.77-8.824 19.75-19.752-.02-10.928-12.766-23.215-18.24-28.688l-41.74-41.74 121.454-120.308-57.416-57.415zM611.952 21.95c0-5.972-2.68-11.196-6.775-14.91C601.484 2.93 596.297.25 590.364.23L422.536 0c-11.1-.02-20.096 9.033-20.096 20.21.02 11.177 12.976 23.77 18.545 29.36l42.45 42.717L344.47 210.47l57.415 57.415 118.144-118.64 42.45 42.717c9.186 9.244 18.506 19.082 29.606 19.1 11.12.02 20.096-9.033 20.096-20.21l-.23-168.9z"/></svg>